<?xml version="1.0" encoding="utf-8"?>
<!-- Generator: Adobe Illustrator 19.1.0, SVG Export Plug-In . SVG Version: 6.00 Build 0)  -->
<svg version="1.1" id="svg2" xmlns:svg="http://www.w3.org/2000/svg"
	 xmlns="http://www.w3.org/2000/svg" xmlns:xlink="http://www.w3.org/1999/xlink" x="0px" y="0px" viewBox="-204 290 441.6 272"
	 style="enable-background:new -204 290 441.6 272;" xml:space="preserve">
<style type="text/css">
	.st0{fill:#005030;}
	.st1{fill:#F47321;}
</style>
<path id="path27" class="st0" d="M123.8,472.2l0-173.3h104.6c0,0-0.1,193.7-0.1,200.6c0,38-104.4,53.3-203.1,53.3
	c0-4.8,0-16.6,0-24.1C74.6,528.6,123.8,518.2,123.8,472.2"/>
<path id="path31" class="st1" d="M-90.2,472.2l0-173.3h-104.6c0,0,0.1,193.7,0.1,200.6c0,38,104.4,53.3,203.1,53.3
	c0-4.8,0-16.6,0-24.1C-41,528.6-90.2,518.2-90.2,472.2"/>
</svg>
